<?xml version="1.0" encoding="UTF-8"?>
<svg id="Capa_1" data-name="Capa 1" xmlns="http://www.w3.org/2000/svg" width="5.56in" height="5.56in" viewBox="0 0 400.25 400">
  <path d="m212.38,144.95c2.34.4,4.72.61,7,1.23,7.09,1.94,12.2,6.55,16.25,12.48,3.97,5.81,6.6,12.26,8.93,18.85.33.94.71,1.27,1.72,1.37,20.83,2.11,41.27,5.9,60.58,14.39,7.98,3.51,15.53,7.75,21.75,13.98,3.5,3.51,6.26,7.51,7.23,12.51.32,1.64.24,3.2-.38,4.83-2.84,7.42-5.56,14.89-8.36,22.33-1.43,3.78-4.11,6.61-7.21,9.09-6.02,4.81-12.93,7.94-20.09,10.57-11.97,4.41-24.37,7.15-36.95,9.13-2.24.35-4.49.63-6.72,1.04-.53.1-1.01.56-1.46.92-.27.22-.41.58-.62.86-2.04,2.75-4.35,5-7.85,4.46-1.24,4.07-2.19,8.1-3.68,11.91-4.15,10.58-12.01,16.79-23.14,18.94-.43.08-.92.12-1.27.35-3.93,2.55-8.27,1.41-12.49,1.43-.29,0-.71-.13-.96-.27-2.5-1.53-5.41-1.77-8.12-2.65-9.32-3.02-15.52-9.31-18.91-18.36-1.36-3.64-2.25-7.45-3.4-11.34-3.74.57-6.11-1.91-8.17-4.85-.61-.87-1.27-1.27-2.35-1.42-16.86-2.32-33.48-5.65-49.26-12.31-5.42-2.29-10.6-5.03-15.17-8.81-3.39-2.8-5.93-6.17-7.43-10.38-2.41-6.77-4.94-13.51-7.58-20.2-.87-2.21-.87-4.3-.28-6.5,1.4-5.18,4.59-9.18,8.45-12.7,6.32-5.77,13.75-9.76,21.54-13.12,12.68-5.47,25.96-8.92,39.54-11.16,6.85-1.13,13.78-1.86,20.67-2.73.62-.08,1.14-.5,1.35-1.08,2.61-7.29,5.5-14.46,10.2-20.72,4.79-6.39,10.93-10.62,19-11.67,2.01-.26,4.05-.29,6.06-.47l1.56.06Zm-32.24,95.62l-.54-.06c-.67,2.14-1.51,4.24-1.98,6.42-1.39,6.41-1.1,12.9-.55,19.38.04.53-.25,1.37-.66,1.6-.72.41-1.11-.3-1.5-.89-1.37-2.07-2.7-4.18-4.25-6.11-.78-.96-1.92-1.74-3.06-2.28-2.07-.99-4.11-.12-4.62,2.08-.38,1.64-.5,3.48-.19,5.13.91,4.97,3.51,9.16,6.67,13.02.38.46.89.84,1.39,1.19,1.11.78,2.53.97,3.82.53,1.53-.53,1.95-.29,2.11,1.28.37,3.83,1.3,7.51,2.65,11.11,3.83,10.25,11,16.55,21.81,18.64.82.16,1.6.49,2.4.75,1.28.41,2.54,1.05,3.85,1.2,1.8.21,3.65.15,5.46,0,1.12-.09,2.21-.52,3.29-.88.79-.26,1.51-.79,2.31-.93,10.71-1.98,18.13-7.96,22.1-18.13,1.51-3.86,2.64-7.82,2.94-11.99.09-1.2.66-1.66,1.63-1.24,2.17.94,3.95.29,5.4-1.34,3.27-3.67,5.76-7.82,6.79-12.65.39-1.81.32-3.81-.01-5.65-.37-2.04-2.06-3.01-4.05-2.35-1.46.49-3.02,1.3-4.03,2.42-1.7,1.89-2.98,4.16-4.51,6.23-.31.42-.93.61-1.41.9-.24-.5-.73-1.03-.68-1.5.53-4.52.62-9.04.05-13.56-.66-5.31-2.2-10.32-5.2-14.83-.64-.96-1.15-1.11-2.23-.62-7.56,3.44-15.15,6.81-22.76,10.15-.06.02-.11.04-.18.06-.95.21-1.76-.88-1.26-1.72.03-.05.06-.09.09-.13,1.48-1.72,3.07-3.34,4.62-4.99,1.56-1.67,3.12-3.35,4.68-5.02-.64-.08-1.16.01-1.66.17-9.4,2.91-18.2,7.09-26.44,12.48-.11.07-.23.13-.37.17-.83.25-1.71-.39-1.7-1.25,0-.11.02-.22.05-.33.59-1.81,1.29-3.59,2.04-5.35.77-1.82,1.65-3.59,2.48-5.38-.59.12-1.02.38-1.43.68-4.34,3.16-7.44,7.35-9.95,12.02-.39.72-.47,1.98-1.67,1.75-1.32-.24-.98-1.51-1.07-2.43-.26-2.59-.46-5.18-.68-7.78Zm88.63-38.76c4.73-4.21,9.33-8.31,14.07-12.53,1.88,5.68,3.69,11.16,5.55,16.76,5.18-3.38,10.14-6.62,15.23-9.94,1.38,5.52,2.71,10.84,4.07,16.26,4.74-1.91,9.33-3.76,14.01-5.65.65,5.22,1.27,10.18,1.91,15.27,3.37-1.02,6.53-1.97,9.72-2.93-.75-2.79-2.08-5.09-3.74-7.2-4.34-5.54-10.01-9.43-16.1-12.75-12.61-6.88-26.2-10.93-40.18-13.86-16.81-3.52-33.84-5.19-50.99-5.54-18.82-.38-37.63-.15-56.36,2.28-12.1,1.57-24.07,3.75-35.76,7.27-10.68,3.22-21,7.27-30.3,13.56-4.57,3.09-8.72,6.63-11.6,11.42-.83,1.38-1.42,2.9-2.17,4.47,3.77,1.14,7.22,2.18,10.78,3.26.65-5.19,1.27-10.16,1.91-15.27,4.73,1.91,9.32,3.76,14,5.65,1.38-5.5,2.72-10.81,4.09-16.25,5.16,3.37,10.14,6.62,15.23,9.94,1.86-5.63,3.67-11.12,5.54-16.76,4.77,4.24,9.37,8.34,14.08,12.53,2.88-5.8,5.66-11.42,8.51-17.15,4.55,4.93,8.95,9.69,13.42,14.53,3.7-5.76,7.32-11.39,11.01-17.14,4.53,5.09,8.98,10.09,13.52,15.18,4.06-5.44,7.99-10.73,12-16.1,4.1,5.46,8.07,10.74,12.1,16.11,4.56-5.12,9.01-10.11,13.53-15.18,3.73,5.81,7.35,11.43,11.01,17.14,4.54-4.92,8.94-9.68,13.42-14.54,2.85,5.74,5.62,11.34,8.5,17.15Zm-129.26-5.65c-1.8,5.44-3.52,10.63-5.27,15.93-5.05-3.3-9.9-6.46-14.89-9.72-1.3,5.2-2.55,10.19-3.83,15.31-4.52-1.82-8.93-3.6-13.45-5.43-.63,5.02-1.23,9.81-1.85,14.8-4.81-1.44-9.46-2.84-14.39-4.32,2.13,5.67,4.15,11.05,6.08,16.18,1.48-2.2,2.76-4.5,4.42-6.48,3.07-3.66,7.09-6.18,11.26-8.43,9.7-5.22,20.12-8.46,30.78-10.99,21.91-5.21,44.19-7.26,66.66-7.56,11.35-.15,22.68.19,34,1.11,13.93,1.13,27.75,3.02,41.37,6.22,10.4,2.45,20.59,5.53,30.16,10.41,4.7,2.4,9.22,5.11,12.7,9.14,1.71,1.98,3,4.33,4.45,6.47,1.87-5,3.82-10.23,5.86-15.71-4.59,1.37-8.87,2.64-13.26,3.94-.63-5-1.23-9.83-1.86-14.8-4.58,1.85-8.96,3.62-13.45,5.43-1.3-5.17-2.55-10.14-3.85-15.3-5.03,3.29-9.91,6.47-14.88,9.72-1.79-5.39-3.5-10.55-5.28-15.92-4.59,4.08-8.99,7.99-13.46,11.97-2.79-5.63-5.49-11.07-8.26-16.66-4.4,4.76-8.66,9.37-13,14.07-3.68-5.72-7.27-11.31-10.96-17.05-4.49,5.05-8.84,9.95-13.26,14.92-3.95-5.26-7.84-10.43-11.83-15.75-3.96,5.32-7.8,10.48-11.73,15.75-4.43-4.98-8.81-9.9-13.29-14.92-3.72,5.79-7.31,11.37-10.96,17.04-4.38-4.74-8.64-9.35-13-14.07-2.81,5.66-5.52,11.12-8.27,16.66-4.54-4.04-8.92-7.94-13.46-11.98Zm59.26,33.47c-1.05.17-1.96.29-2.87.45-6.45,1.19-12.71,2.97-18.39,6.39-2.69,1.62-5.11,3.56-6.71,6.33-1.48,2.56-1.92,5.18.15,8.34,1.23,1.88,2.03,4.03,2.08,6.28.03,1.39.71,2.57,1.24,3.79.26-.45.27-.83.26-1.2-.22-5.26.1-10.48,1.49-15.58.76-2.81,1.9-5.45,3.92-7.62.77-.83,1.67-.77,2.02.11.13.32.12.69.15,1.05.23,2.5.45,5.01.68,7.56.23-.09.34-.1.38-.16.23-.33.44-.67.66-1,3.22-4.86,7.14-8.99,12.5-11.48,1.46-.68,1.94-1.77,2.44-3.25Zm40.03,6.49c5.4,7.44,6.68,15.93,6.72,24.79.54-.69.88-1.36.86-2.21-.05-3.13.76-6.2,2.63-8.71,2.32-3.1,1.85-5.31.46-7.53-1.8-2.87-4.43-4.78-7.25-6.55-1.25-.79-2.26-.75-3.43.22Zm-39.81,5.55c.04.06.07.11.11.17.27-.1.56-.18.81-.31,7.32-3.89,14.95-6.97,23.04-8.85,1.3-.3,1.87-1.42,2.55-2.55-4.34-.58-8.62-.99-12.91-1.3-.6-.04-1.39.31-1.83.74-2.19,2.14-4.3,4.36-6.44,6.57-1.78,1.84-3.55,3.69-5.33,5.53Zm17.57,1.57l.16.22c6.98-3.12,13.96-6.24,21.15-9.45-3.02-1.67-6.08-2.4-9.14-3.1-.34-.08-.88.31-1.19.62-1.76,1.82-3.47,3.69-5.2,5.53-1.93,2.06-3.85,4.11-5.78,6.17Zm-21.05-1.49l.23.16c4.05-4.17,8.11-8.34,12.15-12.52.11-.11.15-.29.32-.61-1.43.09-2.7.28-3.96.21-2.02-.1-3.17.67-3.97,2.6-1.43,3.45-3.16,6.78-4.77,10.16Z"/>
  <path d="m210.45,284.86c-.45.89-.85,1.48-1.07,2.13-.45,1.32-1.25,1.75-2.67,1.69-5.24-.21-10.49-.27-15.73-.45-.39-.01-.98-.4-1.12-.75-.92-2.31-1.73-4.65-2.62-7.1,2.58-.67,5.1-1.31,7.8-2.01.24,1.4.47,2.73.73,4.2-.63.29-1.26.57-2,.9-.19-.77-.36-1.47-.58-2.37-.77.25-1.5.48-2.37.76.44,1.04.72,2.04,1.28,2.85.28.4,1.1.6,1.67.59,4.62-.1,9.24-.39,13.86-.38,6.44,0,12.89.17,19.33.39,1.32.05,1.96-.29,2.31-1.49.18-.62.51-1.2.83-1.94-.85-.28-1.58-.52-2.39-.78-.19.82-.35,1.5-.55,2.35-.66-.28-1.28-.54-2.01-.85.21-1.37.42-2.71.66-4.23,2.64.67,5.19,1.32,7.84,2-.9,2.49-1.73,4.87-2.66,7.22-.13.32-.72.64-1.11.66-5.46.17-10.93.27-16.4.43-.9.03-1.39-.29-1.71-1.1-.33-.82-.77-1.59-1.31-2.71Z"/>
  <path d="m210.48,299.57c-4.54.12-8.39-1.26-11.43-4.75-1.39-1.6-2.89-3.12-5.13-3.59-.79-.16-1.16-.86-.75-1.52.23-.38,1.09-.74,1.47-.6,3.78,1.44,7.73,1.66,11.69,1.6,5.33-.08,10.65-.29,15.97-.57,1.25-.07,2.48-.63,3.71-1,.74-.22,1.45-.37,1.78.53.31.82-.05,1.45-.89,1.61-2.36.47-3.75,2.26-5.3,3.82-1.91,1.92-3.98,3.58-6.76,4-1.45.22-2.91.32-4.37.47Zm-9.99-6.65c1.48,1.92,2,2.32,4.12,2.7,3.93.71,7.87.64,11.81,0,1.79-.29,2.99-1.32,4.07-2.7h-20Z"/>
  <path d="m225.19,250.89c5.39.05,10.31,1.58,14.74,4.66,1.29.89,1.65,1.96,1.07,3.04-.68,1.29-2,1.51-3.4.53-3.95-2.76-8.33-4.21-13.14-3.91-2.14.14-4.27.73-6.36,1.27-1.65.43-2.69.15-3.16-1.18-.45-1.29.04-2.34,1.66-2.79,2.8-.77,4.19-1.61,7.52-1.61.03.13,1.03-.15,1.07-.02Z"/>
  <path d="m195.35,250.91c2.97-.02,5.83.55,8.59,1.63,1.46.57,1.96,1.53,1.52,2.77-.48,1.34-1.48,1.75-3.02,1.19-7-2.53-13.53-1.52-19.63,2.63-.83.57-1.76.99-2.56.27-.55-.49-.98-1.39-1-2.11-.01-.54.6-1.26,1.13-1.63,4.47-3.19,9.48-4.75,14.97-4.75Z"/>
  <path d="m190.12,261.22c-2.04.6-3.49,1.62-4.51,3.21-.46.71-1.01,1.22-1.84.68-.85-.55-.57-1.29-.11-1.97,2.48-3.67,6.08-4.84,10.3-4.56,3.23.21,5.88,1.59,7.89,4.14.55.69,1.07,1.5.12,2.19-.86.62-1.36-.07-1.96-.7-1.01-1.05-2.21-1.93-3.49-2.75.17,1.87-.1,3.39-1.73,4.29-1.17.65-2.4.6-3.53-.18-1.5-1.04-1.6-2.53-1.14-4.35Z"/>
  <path d="m230.39,261.27c.38,3.13-.7,4.82-2.99,4.88-2.39.06-3.52-1.41-3.38-4.6-1.57.53-2.74,1.48-3.67,2.73-.51.68-1.09,1.19-1.88.66-.89-.6-.51-1.36,0-2.08,4.01-5.61,13.57-5.82,17.81-.38.24.31.6.65.63,1,.04.54.04,1.3-.29,1.61-.55.53-1.25.28-1.67-.4-1.04-1.7-2.52-2.81-4.57-3.41Z"/>
  <path d="m210.47,283.47c-1.57.1-2.73-.82-3.89-1.72-.89-.69-1.71-1.45-2.94-.52-.23.17-1.18-.14-1.31-.43-.17-.41-.06-1.16.24-1.51.92-1.08,2.69-1.17,4.18-.29,2.48,1.47,4.93,1.45,7.42,0,1.27-.74,2.61-.88,3.9,0,.65.44,1.08,1.15.51,1.79-.3.33-1.24.43-1.68.21-.94-.47-1.51-.03-2.15.47-1.26.98-2.48,2.07-4.28,2Z"/>
  <path d="m253.99,262.44c.87.1,1.86.17,1.71,1.34-.05.39-.79.93-1.25.98-2.33.23-4.34,2.4-4.2,4.67.09,1.43-.72,2.94-1.84,3.43-1,.44-1.81,0-1.93-1.04-.36-3.12,3.78-8.74,6.85-9.3.22-.04.44-.06.65-.08Z"/>
  <path d="m166.92,262.53c.13.02.25.09.37.13.41.14,2.16.78,2.92,1.74,1.4,1.78,2.4,3.88,3.52,5.87.17.3.25.82.17,1.16-.12.51-.31,1.21-.69,1.41-.39.2-1.16.06-1.57-.21-1.09-.75-1.61-1.87-1.51-3.21.14-1.95-1.88-4.49-3.78-4.6-.86-.05-1.66-.02-1.66-1.17,0-.82.68-1.24,1.88-1.19.18,0,.21.05.34.07Z"/>
  <path d="m210.51,303.93c1.58.13,3.17.24,4.76.38.81.07,1.39.45,1.28,1.35-.12.91-.79.99-1.58.98-3-.04-6.01-.04-9.01,0-.79.01-1.48-.05-1.61-.95-.14-.98.53-1.31,1.38-1.38,1.59-.13,3.18-.25,4.78-.38Z"/>
</svg>